<svg xmlns="http://www.w3.org/2000/svg" viewBox="0 0 140 145">
<title>Spiracha</title>
<!-- SVG created with Arrow, by QuiverAI (https://quiver.ai) -->
  <style type="text/css">.cls-0 {fill:#00384F;}
.cls-1 {fill:#FFFFFF;}
.cls-2 {fill:#24ADB1;}
.cls-3 {fill:#00384F;stroke:#00384F;stroke-width:2.4;stroke-linecap:round;stroke-linejoin:round;stroke-miterlimit:10;}
.cls-4 {fill:#FFFFFF;stroke:#F2F3F4;stroke-width:0.25;stroke-miterlimit:10;}</style>
  <path class="cls-0" d="m105.8 0.9h-71.5c-20.5 0-33.8 15.9-33.8 35.6v71.2c0 19.9 13.3 36.3 34.5 36.3h70.8c21.2 0 33.7-14.4 33.7-36v-71.4c0-19.5-14.1-35.7-33.7-35.7z"/>
  <path class="cls-1" d="m87.5 26.8h-49.8c-7.7 0-15 5.5-15 12.5 0 5.7 3.9 10.6 10.1 12.2l-1.7 7.3c-1.2 0-2.4 1.2-2.4 2.4 0 1.3 1.1 2.4 2.6 2.4 1.6 0 2.9-1.6 2.2-3.6l1.5-8.1c1.8 0 3.4-0.2 5.3-1.1 0.7 7.6 4.4 15 13.2 18.8 2.7 1.2 4.9 1.7 8 2.4l13.2 3c3.5 0.8 8 2 9.6 7.7h11.6c-0.4-7.5-5.2-15.2-15.9-18.2l-19.3-4.5c-4.7-1-9.2-3.8-9.2-10 0-3.2 2.4-9 10.4-9.5h24.5c6.1 0 11.8 3.4 12.2 10.8h15c0-13.1-9.6-24.5-26.1-24.5z"/>
  <path class="cls-2" d="m117.7 87.5-9.4-8.7-0.3 0.1v3.9h-23.7c0.4 1 0.4 2.7 0.4 4.7 0 5.9-3.7 12.4-12.4 12.4h-18.3c-4.1 0-7.5-1.6-9.7-5.4-2-3.6-5.9-6.2-10.4-6.4l-1.1-6.6-2.3 0.6 0.9 6.2c-5.2 0.7-10.1 5.1-10 11.6 0.1 6.1 4.8 13.3 14.1 13.3h38.4c11.3 0 21.3-8 22-21.5h12.1v3.9c0 0.3 0.4 0.5 0.5 0.3l10-8.4z"/>
  <path class="cls-1" d="m115.9 63.2v-8.4h-12.9c-1.1 0-2.5 1-2.5 2.4v23.6h5.7v-2.9c0.2-1.3 1.6-2.1 2.6-1.3l11.7 9.9c0.7 0.7 0.7 1.6 0 2.2l-5 4.1h8.5c1.2 0 2.4-0.8 2.4-2.3v-25.3h-8.5c-1 0-2-0.8-2-2z"/>
  <path class="cls-2" d="m117.5 55.4-0.1 7.8c0 0.3 0.1 0.5 0.4 0.5h8.4l-8.7-8.3z"/>
  <path class="cls-2" d="m27.4 60.3c-5.5 0-11.2 4.5-11.2 10.5 0 5.8 4.5 10.7 11.2 10.7h1c0.6 1 1.5 1.4 2.3 1.4 1.5 0 3-1.1 3-2.6 3.2-1.3 6.4-4.5 6.1-10-0.3-3.5-2.4-7.1-5.8-8.7-0.3 1.1-1.1 1.9-2.3 1.9-1.4 0-3-1.1-2.8-3.1-0.4-0.1-1-0.1-1.5-0.1z"/>
  <path class="cls-1" d="m29.5 82.5c1.4 1.1 4 0.2 4.1-2-0.2-2.4-3.4-3.7-5-1.3-0.6 1.2-0.2 2.7 0.9 3.3z"/>
  <path class="cls-0" d="m117.9 65.2"/>
  <path class="cls-3" d="m112.5 65.2h-5.8c-0.6 0-1 0.4-1 1s0.4 1 1 1h5.8c0.6 0 1-0.4 1-1s-0.5-1-1-1z"/>
  <path class="cls-0" d="m119.5 70.5h-12.8c-0.5 0-1 0.5-1 1s0.5 1 1 1h12.8c0.6 0 1-0.4 1-1s-0.5-1-1-1z"/>
  <path class="cls-0" d="m38 33.9h-5.1c-2.4 0-5.1 1.7-5.1 4.2v1.7c0 1.6 0.7 2.9 2 3.7v2.3c0 0.6 0.7 0.8 1.1 0.6l3.6-2.4h3.5c2.4 0 4.9-1.5 4.9-4.2v-1.7c0.1-2.2-1.9-4.2-4.9-4.2z"/>
  <path class="cls-1" d="m39.1 36.8h-7.2c-0.4 0-0.8 0.3-0.8 0.7s0.3 0.7 0.8 0.7h7.2c0.4 0 0.8-0.3 0.8-0.7 0-0.3-0.4-0.7-0.8-0.7z"/>
  <path class="cls-1" d="m37.9 39.5h-6c-0.4 0-0.8 0.3-0.8 0.7s0.3 0.7 0.8 0.7h5.9c0.4 0 0.8-0.3 0.8-0.7 0-0.3-0.4-0.7-0.7-0.7z"/>
  <path class="cls-1" d="m29.5 66.5c-0.4-0.1-0.9 0.1-1.1 0.6l-3 8.1c-0.2 0.4 0.1 0.8 0.6 0.9 0.4 0.1 0.8-0.1 0.9-0.5l2.6-8.2c0.3-0.4 0-0.8 0-0.9z"/>
  <path class="cls-1" d="m24.8 68c-0.3-0.2-0.8-0.2-1.1 0.1l-3 2.8c-0.3 0.3-0.3 0.8 0 1.1l2.7 2.6c0.3 0.4 0.7 0.4 1.1 0 0.3-0.2 0.3-0.8 0-1l-2.3-2.1 2.5-2.3c0.4-0.2 0.4-0.8 0.1-1.2z"/>
  <path class="cls-1" d="m30.4 68c-0.3 0.4-0.3 0.8 0 1.1l2.5 2.4-2.7 2.1c-0.2 0.3-0.2 0.8 0 1 0.3 0.3 0.8 0.3 1 0.1l3.3-2.8c0.3-0.3 0.3-0.8 0-1l-2.9-2.8c-0.2-0.3-0.9-0.5-1.2-0.1z"/>
  <path class="cls-1" d="m35.9 93.9h-5.2c-2.3 0-4.8 1.7-4.8 4.7v1.9c0.1 1.5 0.8 2.9 2 3.9v2.8c0 0.4 0.6 0.8 1.1 0.4l3.4-2.1h3.5c2.3 0 4.8-1.6 4.8-4.6v-2.1c-0.1-2.8-2.1-4.9-4.8-4.9z"/>
  <path class="cls-2" d="m36.9 97.4h-7.2c-0.5 0-0.8 0.2-0.8 0.7 0 0.4 0.3 0.7 0.7 0.7h7.3c0.3 0 0.7-0.3 0.7-0.7 0-0.3-0.4-0.7-0.7-0.7z"/>
  <path class="cls-2" d="m35.6 100.3h-5.9c-0.5 0-0.7 0.3-0.7 0.8 0 0.4 0.2 0.7 0.7 0.7h5.9c0.4 0 0.8-0.2 0.8-0.7s-0.4-0.8-0.8-0.8z"/>
  <path class="cls-4" d="m32.6 58.7"/>
</svg>
